HIERARCHY
ROOT Hips
{
  OFFSET -1.56614 0.00 -1.85809
  CHANNELS 6 Xposition Yposition Zposition Zrotation Xrotation Yrotation
  JOINT LHipJoint
  {
    OFFSET 0 0 0
    CHANNELS 3 Zrotation Xrotation Yrotation
    JOINT LeftUpLeg
    {
      OFFSET 1.8 -1.4 0.085
      CHANNELS 3 Zrotation Xrotation Yrotation
      JOINT LeftLeg
      {
        OFFSET 2.215 -6 0
        CHANNELS 3 Zrotation Xrotation Yrotation
        JOINT LeftFoot
        {
          OFFSET 2.5 -6.9 0
          CHANNELS 3 Zrotation Xrotation Yrotation
          JOINT LeftToeBase
          {
            OFFSET 0.2 -0.5 1.95
            CHANNELS 3 Zrotation Xrotation Yrotation
            End Site
            {
              OFFSET 0 0 1
            }
          }
        }
      }
    }
  }
  JOINT RHipJoint
  {
    OFFSET 0 0 0
    CHANNELS 3 Zrotation Xrotation Yrotation
    JOINT RightUpLeg
    {
      OFFSET -1.8 -1.4 0.085
      CHANNELS 3 Zrotation Xrotation Yrotation
      JOINT RightLeg
      {
        OFFSET -2.215 -6 0
        CHANNELS 3 Zrotation Xrotation Yrotation
        JOINT RightFoot
        {
          OFFSET -2.5 -6.9 0
          CHANNELS 3 Zrotation Xrotation Yrotation
          JOINT RightToeBase
          {
            OFFSET -0.2 -0.5 1.95
            CHANNELS 3 Zrotation Xrotation Yrotation
            End Site
            {
              OFFSET 0 0 1
            }
          }
        }
      }
    }
  }
  JOINT LowerBack
  {
    OFFSET 0 0 0
    CHANNELS 3 Zrotation Xrotation Yrotation
    JOINT Spine
    {
      OFFSET -0.087 1.94 -0.2889
      CHANNELS 3 Zrotation Xrotation Yrotation
      JOINT Spine1
      {
        OFFSET 0 1.95 0.06
        CHANNELS 3 Zrotation Xrotation Yrotation
        JOINT Neck
        {
          OFFSET 0 0 0
          CHANNELS 3 Zrotation Xrotation Yrotation
          JOINT Neck1
          {
            OFFSET 0 1.6 0.34
            CHANNELS 3 Zrotation Xrotation Yrotation
            JOINT Head
            {
              OFFSET 0 1.667 -0.24
              CHANNELS 3 Zrotation Xrotation Yrotation
              End Site
              {
                OFFSET 0 1.686 -0.12
              }
            }
          }
        }
        JOINT LeftShoulder
        {
          OFFSET 0 0 0
          CHANNELS 3 Zrotation Xrotation Yrotation
          JOINT LeftArm
          {
            OFFSET 2.7 1.55 -0.73
            CHANNELS 3 Zrotation Xrotation Yrotation
            JOINT LeftForeArm
            {
              OFFSET 5.45 0 0
              CHANNELS 3 Zrotation Xrotation Yrotation
              JOINT LeftHand
              {
                OFFSET 3.45 0 0
                CHANNELS 3 Zrotation Xrotation Yrotation
                JOINT LeftFingerBase
                {
                  OFFSET 0 0 0
                  CHANNELS 3 Zrotation Xrotation Yrotation
                  JOINT LeftHandIndex1
                  {
                    OFFSET 0.75 0 0
                    CHANNELS 3 Zrotation Xrotation Yrotation
                    End Site
                    {
                      OFFSET 0.6 0 0
                    }
                  }
                }
                JOINT LThumb
                {
                  OFFSET 0 0 0
                  CHANNELS 3 Zrotation Xrotation Yrotation
                  End Site
                  {
                    OFFSET 0.59 0 0.59
                  }
                }
              }
            }
          }
        }
        JOINT RightShoulder
        {
          OFFSET 0 0 0
          CHANNELS 3 Zrotation Xrotation Yrotation
          JOINT RightArm
          {
            OFFSET -2.7 1.55 -0.73
            CHANNELS 3 Zrotation Xrotation Yrotation
            JOINT RightForeArm
            {
              OFFSET -5.45 0 0
              CHANNELS 3 Zrotation Xrotation Yrotation
              JOINT RightHand
              {
                OFFSET -3.45 0 0
                CHANNELS 3 Zrotation Xrotation Yrotation
                JOINT RightFingerBase
                {
                  OFFSET 0 0 0
                  CHANNELS 3 Zrotation Xrotation Yrotation
                  JOINT RightHandIndex1
                  {
                    OFFSET -0.75 0 0
                    CHANNELS 3 Zrotation Xrotation Yrotation
                    End Site
                    {
                      OFFSET -0.6 0 0
                    }
                  }
                }
                JOINT RThumb
                {
                  OFFSET 0 0 0
                  CHANNELS 3 Zrotation Xrotation Yrotation
                  End Site
                  {
                    OFFSET -0.59 0 0.59
                  }
                }
              }
            }
          }
        }
      }
    }
  }
}
MOTION
Frames:	12
Frame Time:	0.00833333
17.0413 18.683 -21.861 17.0934 -5.54652 -128.555 2.38542e-015 2.78299e-015 -3.18055e-015 -7.58693 -37.317 4.46156 -1.20556 18.8457 8.41653 -16.4529 47.358 16.0524 3.97569e-015 1.09332e-015 6.36111e-015 2.38542e-015 2.78299e-015 -3.18055e-015 26.3668 -27.7548 25.363 -18.3808 28.012 78.2321 43.1076 -63.3738 -63.7903 -1.59028e-015 0 -7.95139e-016 2.38542e-015 2.78299e-015 -3.18055e-015 -19.4149 16.2074 -4.27312 4.30969 3.34162 -7.75303 17.8092 -26.9873 4.57655 16.2919 9.31762 -0.35691 -31.4351 16.1319 33.308 15.5511 1.28112 25.8816 59.3895 37.0645 -115.92 -153.375 29.7893 -124.184 27.4259 5.41904 57.564 8.76206e-007 -7.94516e-008 -1.2548e-008 1.59028e-015 3.18055e-015 -3.97569e-016 3.18055e-015 0 1.19271e-015 25.2832 2.42463 4.10967 -125.895 -39.0128 -30.0239 18.3435 20.9731 16.0933 14.974 -2.63562 -9.5848 1.57908e-006 -3.20281e-007 -4.76729e-007 3.18055e-015 -3.18055e-015 6.36111e-015 -6.36111e-015 0 -0 
17.1521 18.6725 -21.766 17.18 -5.71466 -128.799 2.38542e-015 3.97569e-016 -3.18055e-015 -7.40348 -38.3304 4.06228 -1.37254 20.1833 8.73835 -16.0542 46.1372 13.748 3.18055e-015 3.57812e-015 -0 2.38542e-015 3.97569e-016 -3.18055e-015 26.5403 -28.2955 25.8663 -18.1176 27.9651 77.5738 43.3774 -62.6391 -63.4173 4.77083e-015 6.36111e-015 -0 2.38542e-015 3.97569e-016 -3.18055e-015 -19.4458 17.4322 -3.92736 4.56351 3.41573 -7.69852 16.9629 -28.2586 4.99953 15.1885 8.11777 0.264592 -29.9965 16.9471 32.8498 13.3721 0.726924 23.9813 58.8749 36.3688 -113.84 -165.563 33.0638 -120.923 35.419 9.78811 56.3513 8.76206e-007 -7.94516e-008 -1.2548e-008 -1.59028e-015 -1.59028e-015 -5.96354e-016 -7.95139e-016 1.59028e-015 1.98785e-016 23.9769 2.07051 3.29118 -126.735 -42.7831 -29.8299 18.3106 20.5335 16.0064 13.9917 -2.22902 -8.44394 1.57908e-006 -3.20281e-007 -4.76729e-007 -3.18055e-015 -3.18055e-015 4.77083e-015 1.76556e-031 3.18055e-015 -3.18055e-015 
17.2624 18.6613 -21.6712 17.2869 -5.8203 -128.953 -7.95139e-016 -2.38542e-015 -0 -7.1544 -39.2787 3.73296 -1.51082 21.4756 8.90983 -15.913 44.8488 11.4587 7.95139e-016 3.8763e-015 3.18055e-015 -7.95139e-016 -2.38542e-015 -0 26.7207 -28.8318 26.3224 -17.8006 27.9235 76.8856 43.5286 -61.7679 -63.1228 -1.59028e-015 0 1.03368e-014 -7.95139e-016 -2.38542e-015 -0 -19.4342 18.6818 -3.66417 4.5929 3.45149 -7.68196 16.494 -29.2504 5.31327 14.5306 7.16576 0.675445 -29.1321 17.3944 32.5425 11.5593 0.304523 22.5669 58.8459 35.0196 -112.452 -177.197 35.7388 -117.51 42.2421 12.938 54.5261 8.76206e-007 -7.94516e-008 -1.2548e-008 2.38542e-015 1.98785e-016 -1.3977e-016 -4.39666e-033 -9.93923e-017 -2.5345e-015 23.1907 1.75994 2.47904 -127.496 -46.8684 -29.3112 18.8549 17.2879 16.0693 14.6938 -1.23794 -5.71649 1.57908e-006 -3.20281e-007 -4.76729e-007 -0 0 9.54166e-015 -2.64834e-031 -3.18055e-015 -4.77083e-015 
17.373 18.6487 -21.5758 17.3969 -5.8362 -129.011 -3.18055e-015 4.77083e-015 3.18055e-015 -6.73481 -40.0994 3.55012 -1.57006 22.6639 8.94337 -16.3648 43.514 9.21211 4.37326e-015 -1.05356e-014 -6.36111e-015 -3.18055e-015 4.77083e-015 3.18055e-015 26.9244 -29.3637 26.7381 -17.4155 27.8767 76.128 43.7276 -60.5817 -62.7904 -3.18055e-015 6.36111e-015 3.18055e-015 -3.18055e-015 4.77083e-015 3.18055e-015 -19.4041 19.9921 -3.49693 4.38101 3.45783 -7.72615 16.439 -29.9317 5.50567 14.3548 6.49105 0.860712 -28.9165 17.4096 32.4389 10.2339 0.0407688 21.7196 59.392 32.9184 -111.828 171.28 37.8617 -113.939 47.9486 14.7516 51.4876 8.76206e-007 -7.94516e-008 -1.2548e-008 7.95139e-016 1.59028e-015 2.28602e-015 7.1726e-032 1.59028e-015 -2.5842e-015 23.0926 1.4981 1.66803 -128.024 -51.3255 -28.336 20.4381 9.55352 16.5586 17.5801 0.871033 -0.0245542 1.57908e-006 -3.20281e-007 -4.76729e-007 3.18055e-015 -4.42296e-015 9.93923e-015 6.36111e-015 -7.05686e-015 -5.86415e-015 
17.4834 18.635 -21.4803 17.5128 -5.79947 -128.979 7.95139e-016 -1.59028e-015 -6.36111e-015 -6.22082 -40.8278 3.46348 -1.59018 23.7515 8.86207 -17.1274 42.1458 7.00959 6.36111e-015 -8.34896e-015 -0 7.95139e-016 -1.59028e-015 -6.36111e-015 27.1238 -29.8952 27.1157 -16.9857 27.818 75.3126 43.8956 -59.2253 -62.4747 -3.18055e-015 6.36111e-015 -7.15625e-015 7.95139e-016 -1.59028e-015 -6.36111e-015 -19.3558 21.3401 -3.38645 4.04825 3.44377 -7.80737 16.5908 -30.4149 5.61314 14.4302 5.99798 0.91185 -29.0557 17.1582 32.4016 9.24446 -0.112351 21.0966 60.106 30.5807 -111.505 159.904 39.4231 -110.277 52.9744 15.5888 47.3251 8.76206e-007 -7.94516e-008 -1.2548e-008 7.95139e-016 0 4.77083e-015 -7.95139e-016 0 1.19271e-015 23.3429 1.26255 0.844606 -128.202 -56.1433 -26.9602 22.7679 -0.296513 17.6394 21.1537 3.44513 7.0033 1.57908e-006 -3.20281e-007 -4.76729e-007 -1.23589e-030 6.36111e-015 1.11319e-014 -6.36111e-015 3.18055e-015 1.59028e-015 
17.5927 18.6215 -21.3857 17.6538 -5.76392 -128.864 7.95139e-016 -1.59028e-015 -0 -5.77113 -41.5519 3.36082 -1.6388 24.7996 8.66688 -17.6702 40.733 4.82738 6.75868e-015 7.55382e-015 6.36111e-015 7.95139e-016 -1.59028e-015 -0 27.2801 -30.4299 27.4496 -16.5426 27.7525 74.4858 43.8382 -57.9824 -62.2977 -3.18055e-015 0 -7.95139e-016 7.95139e-016 -1.59028e-015 -0 -19.2632 22.6734 -3.29084 3.70134 3.40738 -7.8856 16.7502 -30.8153 5.67012 14.537 5.58654 0.913742 -29.2645 16.8226 32.275 8.37192 -0.210119 20.36 60.6225 28.5258 -111.102 149.277 40.4426 -106.762 57.5136 15.6496 42.4542 8.76206e-007 -7.94516e-008 -1.2548e-008 7.95139e-016 -3.18055e-015 3.57812e-015 -7.95139e-016 0 7.95139e-016 23.5244 1.03162 0.00357276 -127.921 -61.2628 -25.2236 25.1248 -8.86589 19.0379 24.1397 5.44853 12.808 1.57908e-006 -3.20281e-007 -4.76729e-007 -6.36111e-015 3.18055e-015 1.27222e-014 -6.36111e-015 0 -0 
17.7001 18.6096 -21.2932 17.8394 -5.78014 -128.672 -3.97569e-015 7.95139e-016 -3.18055e-015 -5.54685 -42.3565 3.13063 -1.7806 25.8664 8.35597 -17.4741 39.2685 2.63207 -3.97569e-015 7.95139e-016 -3.18055e-015 -3.97569e-015 7.95139e-016 -3.18055e-015 27.3555 -30.9727 27.7334 -16.1149 27.6897 73.6932 43.3988 -57.1228 -62.3325 -4.77083e-015 -6.36111e-015 3.18055e-015 -3.97569e-015 7.95139e-016 -3.18055e-015 -18.9746 23.9297 -3.28299 3.41151 3.37376 -7.99664 16.7089 -31.2053 5.71155 14.4516 5.19993 0.954011 -29.2382 16.5569 31.9616 7.6373 -0.161376 19.1581 60.6194 27.0849 -110.367 140.253 40.9065 -103.826 61.8363 15.2853 37.33 8.76206e-007 -7.94516e-008 -1.2548e-008 -1.59028e-015 0 1.19271e-015 -3.18055e-015 0 6.36111e-015 23.1978 0.824744 -0.769669 -127.324 -66.8188 -23.1667 26.2919 -12.9811 19.848 26.1246 6.068 14.699 1.57908e-006 -3.20281e-007 -4.76729e-007 -9.54166e-015 6.36111e-015 -0 -3.18055e-015 0 -0 
17.8055 18.6 -21.2029 18.0742 -5.82855 -128.383 2.38542e-015 2.38542e-015 -3.18055e-015 -5.53111 -43.2381 2.81217 -1.9941 26.9409 7.87787 -16.4156 37.8252 0.21832 4.37326e-015 -1.98785e-015 -3.18055e-015 2.38542e-015 2.38542e-015 -3.18055e-015 27.35 -31.5387 27.9498 -15.6869 27.633 72.9413 42.6408 -56.5853 -62.5275 -1.59028e-015 3.18055e-015 -0 2.38542e-015 2.38542e-015 -3.18055e-015 -16.4587 24.9159 -5.14376 2.68953 3.75435 -9.28623 16.2015 -30.985 5.73414 13.9588 5.45568 1.11768 -28.5137 16.0404 32.3049 10.7943 2.31162 17.1414 59.9128 24.1588 -108.894 136.8 39.8181 -104.642 66.0097 14.0431 32.0212 8.76206e-007 -7.94517e-008 -1.2548e-008 -5.56597e-015 -3.18055e-015 -0 3.97569e-015 -1.27222e-014 5.56597e-015 21.858 1.26274 -0.0890087 -129.855 -75.8799 -20.9268 26.6558 -11.9827 19.155 29.4967 5.347 10.642 1.57908e-006 -3.20281e-007 -4.76729e-007 -1.76556e-031 3.18055e-015 3.18055e-015 -1.59028e-015 -3.18055e-015 -0 
17.9095 18.5913 -21.1142 18.3448 -5.89732 -128.011 1.59028e-015 3.18055e-015 3.18055e-015 -5.66539 -44.1532 2.42149 -2.2442 28.0009 7.26982 -14.9008 36.3355 -2.21097 5.96354e-015 -6.95746e-015 -0 1.59028e-015 3.18055e-015 3.18055e-015 27.2797 -32.1142 28.1164 -15.2562 27.5783 72.1992 41.6249 -56.2761 -62.8388 1.32417e-031 -3.18055e-015 2.38542e-015 1.59028e-015 3.18055e-015 3.18055e-015 -13.5294 25.8037 -7.27809 1.95305 4.16353 -10.716 15.5747 -30.6501 5.72106 13.3678 5.83397 1.28216 -27.6615 15.479 32.6066 14.7087 5.19494 14.8425 58.9209 21.4448 -107.238 135.013 38.305 -106.182 69.3527 11.8554 26.3912 8.76206e-007 -7.94516e-008 -1.2548e-008 -3.18055e-015 9.54166e-015 -0 0 0 -1.59028e-015 20.1827 1.78202 0.76477 -124.616 -85.5829 -11.0207 26.2539 -8.24432 17.8821 32.4629 3.66837 3.88997 1.57908e-006 -3.20281e-007 -4.76729e-007 1.27222e-014 -1.59028e-015 3.18055e-015 -1.59028e-015 -7.95139e-015 6.36111e-015 
18.0123 18.582 -21.0261 18.6378 -5.99521 -127.588 -7.95139e-016 4.77083e-015 -3.18055e-015 -5.9323 -45.0717 1.92531 -2.52108 29.0403 6.60743 -13.3449 34.6988 -4.31387 2.78299e-015 4.96962e-015 -3.18055e-015 -7.95139e-016 4.77083e-015 -3.18055e-015 27.1559 -32.6749 28.2619 -14.8365 27.5193 71.4371 40.3481 -56.1826 -63.2612 1.59028e-015 0 3.18055e-015 -7.95139e-016 4.77083e-015 -3.18055e-015 -13.6519 27.008 -6.70536 1.92648 3.92853 -10.3841 15.347 -31.1577 5.66182 13.1286 5.34315 1.27161 -27.5971 15.3205 31.5238 12.928 4.62345 12.8998 57.9651 22.0235 -106.521 128.589 38.4682 -103.776 71.1551 9.08084 20.2981 8.76206e-007 -7.94516e-008 -1.2548e-008 8.82781e-032 3.18055e-015 -1.59028e-015 -3.18055e-015 6.36111e-015 -3.18055e-015 19.2362 1.3557 -0.52175 -17.4303 -87.8619 95.6522 24.2965 -4.33414 17.2533 31.7477 1.50445 -1.18828 1.57908e-006 -3.20281e-007 -4.76729e-007 -3.18055e-015 -3.18055e-015 6.36111e-015 2.11868e-030 9.54166e-015 -1.27222e-014 
18.1144 18.5709 -20.938 18.9404 -6.13171 -127.139 1.58901e-030 -7.15625e-015 1.27222e-014 -6.32281 -45.963 1.28516 -2.82213 30.0564 5.95775 -12.1108 32.8293 -5.7762 -1.98785e-016 -8.54774e-015 -9.54166e-015 1.58901e-030 -7.15625e-015 1.27222e-014 26.9863 -33.1946 28.412 -14.4422 27.4471 70.6255 38.7834 -56.3135 -63.8053 4.77083e-015 -3.18055e-015 -1.59028e-015 1.58901e-030 -7.15625e-015 1.27222e-014 -20.9045 28.8249 -0.0571374 3.53071 2.29044 -6.26342 16.0576 -33.5334 5.54476 13.6981 2.92094 0.900446 -29.2559 16.0007 27.5845 -1.86405 -3.62704 12.1572 57.2263 29.5908 -106.861 109.994 40.6349 -91.4961 70.77 6.10454 13.4199 8.76206e-007 -7.94517e-008 -1.2548e-008 3.18055e-015 0 3.18055e-015 6.36111e-015 -9.54166e-015 4.77083e-015 19.8274 -1.11556 -6.44051 -76.1844 -84.5846 26.3209 19.4558 -2.87 18.2889 24.6313 -0.608791 -0.20013 1.57908e-006 -3.20281e-007 -4.76729e-007 1.59028e-015 -6.36111e-015 6.36111e-015 3.18055e-015 -3.18055e-015 -0 
18.216 18.5596 -20.849 19.2626 -6.32044 -126.627 -2.38542e-015 3.18055e-015 -3.18055e-015 -6.93834 -46.819 0.423088 -3.15386 31.0872 5.17613 -10.9979 30.6213 -6.60241 3.97569e-015 6.16232e-015 -6.36111e-015 -2.38542e-015 3.18055e-015 -3.18055e-015 26.7082 -33.6404 28.5271 -14.0843 27.3528 69.7523 36.604 -56.9927 -64.6446 4.77083e-015 0 1.59028e-015 -2.38542e-015 3.18055e-015 -3.18055e-015 -41.899 30.0958 17.888 9.20365 -2.01993 4.55831 18.3443 -39.2519 5.33985 15.509 -2.95135 -0.0904135 -33.5072 18.0009 18.3643 -38.7382 -25.3813 14.9373 53.5199 50.8248 -99.9151 71.81 33.2216 -62.6938 66.9736 2.33508 4.12582 8.76206e-007 -7.94516e-008 -1.2548e-008 -6.36111e-015 -3.18055e-015 -0 -3.18055e-015 0 3.18055e-015 21.1397 -6.83895 -20.9338 -77.8274 -63.3716 -4.49072 8.90198 -3.98231 21.9119 7.09027 -3.22998 9.97813 1.57908e-006 -3.20281e-007 -4.76729e-007 -3.18055e-015 -6.36111e-015 3.18055e-015 -3.18055e-015 0 -1.59028e-015 
